<svg xmlns="http://www.w3.org/2000/svg" width="15.711" height="12.344" viewBox="0 0 15.711 12.344"><defs><style>.a{fill:#fff;}</style></defs><g transform="translate(0 -59.013)"><g transform="translate(0 59.013)"><path class="a" d="M30.771,328.324a1.343,1.343,0,0,0,.919-.347l-4.451-4.451-.308.221q-.5.368-.811.574a4.994,4.994,0,0,1-.828.421,2.525,2.525,0,0,1-.964.215h-.017a2.525,2.525,0,0,1-.965-.215,4.978,4.978,0,0,1-.828-.421q-.311-.206-.811-.574l-.307-.223-4.452,4.453a1.343,1.343,0,0,0,.919.347Z" transform="translate(-16.463 -315.98)"/><path class="a" d="M.886,199.318A4.649,4.649,0,0,1,0,198.555v6.772L3.923,201.4Q2.746,200.582.886,199.318Z" transform="translate(0 -194.575)"/><path class="a" d="M416.354,199.318q-1.791,1.212-3.045,2.088l3.922,3.922v-6.773A4.837,4.837,0,0,1,416.354,199.318Z" transform="translate(-401.52 -194.575)"/><path class="a" d="M14.314,59.013H1.409a1.252,1.252,0,0,0-1.039.456,1.769,1.769,0,0,0-.364,1.14,2.049,2.049,0,0,0,.482,1.2,4.35,4.35,0,0,0,1.026,1.013q.3.211,1.8,1.249c.54.374,1.009.7,1.412.981l.885.619.131.093.242.174q.285.206.473.333t.456.285a2.659,2.659,0,0,0,.5.237,1.4,1.4,0,0,0,.438.079H7.87a1.4,1.4,0,0,0,.438-.079,2.654,2.654,0,0,0,.5-.237q.267-.158.456-.285t.473-.333l.242-.174.131-.093L11,65.051l3.216-2.233a4.17,4.17,0,0,0,1.07-1.078,2.32,2.32,0,0,0,.429-1.324,1.414,1.414,0,0,0-1.4-1.4Z" transform="translate(-0.006 -59.013)"/></g></g></svg>