<svg xmlns="http://www.w3.org/2000/svg" width="9.724" height="17.171" viewBox="0 0 9.724 17.171"><defs><style>.a{fill:#fff;}</style></defs><path class="a" d="M14.425,0H7.2a1.25,1.25,0,0,0-1.25,1.251V15.921a1.249,1.249,0,0,0,1.25,1.25h7.225a1.25,1.25,0,0,0,1.25-1.25V1.251A1.251,1.251,0,0,0,14.425,0ZM9.03.76H12.6c.09,0,.163.135.163.3s-.073.3-.163.3H9.03c-.091,0-.163-.135-.163-.3S8.939.76,9.03.76Zm1.783,15.177a.8.8,0,1,1,.8-.8A.8.8,0,0,1,10.813,15.936ZM14.739,13.2H6.888V2.111h7.851V13.2Z" transform="translate(-5.951)"/></svg>