<svg xmlns="http://www.w3.org/2000/svg" width="99.379" height="99.378" viewBox="0 0 99.379 99.378"><defs><style>.a{fill:#425873;stroke:#425873;stroke-width:2px;opacity:0.1;}</style></defs><path class="a" d="M93.745,69.325H93V67.859A33.948,33.948,0,0,0,59.095,33.949H41.223A7.382,7.382,0,0,1,34,28.053H34.6a3.638,3.638,0,0,0,3.633-3.633V14.57A3.638,3.638,0,0,0,34.6,10.936h-.741V1.426A1.426,1.426,0,0,0,32.428,0H19.97a1.427,1.427,0,0,0,0,2.853H31v8.083H7.227V2.853H10.27A1.427,1.427,0,0,0,10.27,0H5.8A1.426,1.426,0,0,0,4.374,1.426v9.51H3.633A3.638,3.638,0,0,0,0,14.57v9.85a3.638,3.638,0,0,0,3.633,3.634h.741V29.52A33.948,33.948,0,0,0,38.284,63.429H56.155a7.382,7.382,0,0,1,7.221,5.9h-.593a3.638,3.638,0,0,0-3.633,3.633v9.85a3.638,3.638,0,0,0,3.633,3.633h.741v9.51a1.426,1.426,0,0,0,1.426,1.426H91.578A1.426,1.426,0,0,0,93,95.952v-9.51h.741a1.427,1.427,0,0,0,0-2.853l-7.68-.047V72.224l7.68-.047a.781.781,0,0,1,.781.781v4.735a1.427,1.427,0,0,0,2.853,0V72.959a3.638,3.638,0,0,0-3.633-3.633ZM35.376,14.57v9.85a.781.781,0,0,1-.781.781l-7.68-.047V13.836l7.68-.047A.781.781,0,0,1,35.376,14.57Zm-11.314-.734V25.154h-9.9V13.836ZM2.853,24.42V14.57a.781.781,0,0,1,.781-.781H5.444a1.422,1.422,0,0,0,.356.047h5.513V25.154H5.8a1.422,1.422,0,0,0-.356.047H3.633a.782.782,0,0,1-.781-.781Zm53.3,36.156H38.284A31.092,31.092,0,0,1,7.227,29.52V28.053H31.108A10.237,10.237,0,0,0,41.223,36.8H59.095A31.092,31.092,0,0,1,90.151,67.859v1.466H66.27a10.237,10.237,0,0,0-10.115-8.749ZM62,82.809v-9.85a.781.781,0,0,1,.781-.781h1.811a1.422,1.422,0,0,0,.356.047h5.513V83.543H64.951a1.422,1.422,0,0,0-.356.047H62.783A.782.782,0,0,1,62,82.809ZM90.151,94.526H66.377V86.443H90.151ZM83.212,83.543h-9.9V72.225h9.9Z" transform="translate(1 1)"/></svg>