<svg xmlns="http://www.w3.org/2000/svg" width="62.828" height="62.828" viewBox="0 0 62.828 62.828"><defs><style>.a{fill:#3a4c6d;stroke:#3a4c6d;stroke-width:2px;}</style></defs><path class="a" d="M58.559,43.3H58.1v-.916A21.206,21.206,0,0,0,36.914,21.207H25.751a4.611,4.611,0,0,1-4.511-3.683h.37a2.272,2.272,0,0,0,2.27-2.27V9.1a2.272,2.272,0,0,0-2.27-2.27h-.463V.891A.891.891,0,0,0,20.256,0H12.475a.892.892,0,0,0,0,1.782h6.891V6.831H4.515V1.782h1.9A.892.892,0,0,0,6.416,0H3.624a.891.891,0,0,0-.891.891v5.94H2.27A2.272,2.272,0,0,0,0,9.1v6.153a2.272,2.272,0,0,0,2.27,2.27h.463v.916A21.206,21.206,0,0,0,23.914,39.622H35.078A4.611,4.611,0,0,1,39.588,43.3h-.37a2.272,2.272,0,0,0-2.27,2.27v6.153A2.272,2.272,0,0,0,39.218,54h.463v5.94a.891.891,0,0,0,.891.891H57.2a.891.891,0,0,0,.891-.891V54h.463a.892.892,0,0,0,0-1.782l-4.8-.029v-7.07l4.8-.029a.488.488,0,0,1,.488.488v2.958a.892.892,0,0,0,1.782,0V45.574a2.272,2.272,0,0,0-2.27-2.27ZM22.1,9.1v6.153a.488.488,0,0,1-.488.488l-4.8-.029V8.643l4.8-.029A.488.488,0,0,1,22.1,9.1Zm-7.067-.458v7.07H8.849V8.643ZM1.782,15.254V9.1a.488.488,0,0,1,.488-.488H3.4a.888.888,0,0,0,.223.029H7.067v7.07H3.624a.888.888,0,0,0-.223.029H2.27a.488.488,0,0,1-.488-.488Zm33.3,22.585H23.914a19.422,19.422,0,0,1-19.4-19.4v-.916H19.432a6.4,6.4,0,0,0,6.319,5.465H36.914a19.422,19.422,0,0,1,19.4,19.4V43.3H41.4a6.4,6.4,0,0,0-6.319-5.465Zm3.653,13.888V45.574a.488.488,0,0,1,.488-.488h1.131a.888.888,0,0,0,.223.029h3.444v7.07H40.572a.888.888,0,0,0-.223.029H39.218A.488.488,0,0,1,38.731,51.727Zm17.583,7.319H41.463V54H56.314Zm-4.335-6.861H45.8v-7.07h6.181Z" transform="translate(1 1)"/></svg>