<svg xmlns="http://www.w3.org/2000/svg" width="96.383" height="46.916" viewBox="0 0 96.383 46.916"><defs><style>.a{fill:#3a4c6d;}</style></defs><g transform="translate(0 -93.096)"><path class="a" d="M220.569,144.979a1.992,1.992,0,0,0-1.721.988l-12.615,21.608a1.993,1.993,0,0,0,1.721,3h25.23a1.993,1.993,0,0,0,1.721-3L222.29,145.967A1.993,1.993,0,0,0,220.569,144.979Zm-9.145,21.608,9.145-15.664,9.144,15.664Z" transform="translate(-151.243 -38.099)"/><path class="a" d="M94.39,136.027H47.733L69.326,99.041l16.718,28.635a1.992,1.992,0,1,0,3.441-2.009L71.047,94.084c-.006-.01-.013-.018-.018-.027-.033-.055-.07-.108-.108-.16l-.035-.047a2.02,2.02,0,0,0-.155-.175l-.02-.018a1.984,1.984,0,0,0-.156-.135l-.053-.039c-.05-.036-.1-.07-.154-.1l-.044-.027a1.963,1.963,0,0,0-.215-.105l-.009,0a1.992,1.992,0,0,0-.213-.073l-.058-.015c-.059-.015-.119-.027-.18-.036l-.063-.01a1.992,1.992,0,0,0-.241-.016H27.057a1.992,1.992,0,0,0-1.721.988L.272,137.015a1.993,1.993,0,0,0,1.721,3h92.4a1.993,1.993,0,1,0,0-3.985Zm-51.272,0H38l18.446-31.74a1.993,1.993,0,0,0-3.446-2L33.391,136.027H28.453L51.087,97.081H65.855ZM28.2,97.081h9.057L19.869,127a1.993,1.993,0,1,0,3.446,2L41.867,97.081h4.611L23.844,136.027H5.463Z" transform="translate(0)"/></g></svg>