<svg xmlns="http://www.w3.org/2000/svg" width="70.552" height="48.505" viewBox="0 0 70.552 48.505"><defs>
<style>.a{fill:#3A4C6D;}</style>
</defs><g transform="translate(0 -79.998)"><g transform="translate(0 79.998)"><path class="a" d="M70.548,122.549a.472.472,0,0,0,0-.056c0-.013,0-.026,0-.039s-.006-.041-.009-.062a.178.178,0,0,0-.006-.032c0-.03-.011-.062-.017-.093L60.217,81.112A1.467,1.467,0,0,0,58.792,80H11.758a1.47,1.47,0,0,0-1.425,1.114L.043,122.267c-.009.03-.013.062-.019.093a.251.251,0,0,1-.006.034c0,.019,0,.039-.009.06a.245.245,0,0,1,0,.039c0,.019,0,.037,0,.056a.255.255,0,0,0,0,.041v4.442a1.47,1.47,0,0,0,1.955,1.389l7.932-2.771,8.005,2.771a1.467,1.467,0,0,0,.965,0l7.966-2.771,7.971,2.771a1.453,1.453,0,0,0,.965,0l7.969-2.771,7.968,2.771a1.453,1.453,0,0,0,.965,0l7.971-2.771,7.969,2.771a1.492,1.492,0,0,0,.482.082,1.471,1.471,0,0,0,1.471-1.471v-4.41c0-.011,0-.021,0-.032S70.55,122.562,70.548,122.549ZM67,120.342l-5.882-2.048a1.481,1.481,0,0,0-.965,0l-6.737,2.342L51.95,108.929l6.007-2.077,6.216,2.2ZM60.868,95.827l2.45,9.8-4.868-1.719a1.472,1.472,0,0,0-.971,0l-5.9,2.042L50.294,95.692l5.036-1.765Zm-3.221-12.89,2.373,9.491L55.8,90.982a1.468,1.468,0,0,0-.965,0l-4.918,1.722L48.7,82.938Zm-20.9,0h8.991l1.2,9.6-4.5-1.553a1.461,1.461,0,0,0-.96,0l-4.733,1.645Zm0,12.8h0l5.215-1.814,5.383,1.86,1.247,9.962-5.266-1.842a1.467,1.467,0,0,0-.967,0l-5.611,1.951V95.741Zm0,13.228h0l6.091-2.118L49,109.006l1.43,11.45-6.214-2.162a1.488,1.488,0,0,0-.967,0l-6.5,2.261V108.97ZM24.814,82.938h8.991v9.691l-4.73-1.645a1.468,1.468,0,0,0-.962,0l-4.5,1.553Zm8.991,26.032v11.586l-6.5-2.261a1.481,1.481,0,0,0-.965,0l-6.216,2.162,1.432-11.446,6.158-2.159Zm-10.6-13.182,5.383-1.86,5.215,1.814v10.116L28.2,103.907a1.473,1.473,0,0,0-.969,0l-5.266,1.845Zm-10.3-12.85h8.946l-1.221,9.77-4.918-1.722a1.466,1.466,0,0,0-.965,0l-4.216,1.447ZM9.685,95.828l5.538-1.9,5.034,1.765-1.279,10.253-5.908-2.039a1.467,1.467,0,0,0-.969,0l-4.866,1.719Zm-3.307,13.22,6.218-2.2,6.007,2.073-1.464,11.715-6.771-2.345a1.479,1.479,0,0,0-.48-.082,1.507,1.507,0,0,0-.487.082l-5.843,2.043Zm61.233,15.918-6.5-2.261a1.481,1.481,0,0,0-.965,0l-7.971,2.771L44.212,122.7a1.488,1.488,0,0,0-.967,0l-7.968,2.771L27.306,122.7a1.481,1.481,0,0,0-.965,0l-7.971,2.773-8-2.773a1.479,1.479,0,0,0-.48-.082,1.506,1.506,0,0,0-.487.082l-6.461,2.259v-1.3l6.948-2.426,8.005,2.771v0l.045.013c.028.009.058.017.088.024a.452.452,0,0,0,.052.011c.028.006.058.013.086.017a.115.115,0,0,1,.026,0l.043,0a.139.139,0,0,1,.03,0c.037,0,.073,0,.112,0,.024,0,.047,0,.073,0a.4.4,0,0,0,.052,0l.08-.009.045-.006c.026,0,.052-.011.077-.017l.047-.011c.026-.006.047-.015.073-.021l.034-.011,7.966-2.771,7.971,2.771.019.006.062.019c.024.006.047.011.069.017l.06.013.082.013.052.006c.047,0,.09.006.138.006s.09,0,.136-.006l.052-.006.082-.013.062-.013.067-.017.065-.019.019-.006,7.969-2.771,7.968,2.771.034.011c.024.006.047.015.073.021l.047.011c.026.006.052.013.077.017l.047.006c.026,0,.052.006.077.009l.069,0,.056,0c.037,0,.073,0,.112,0,.009,0,.021,0,.032,0l.039,0a.089.089,0,0,1,.024,0c.03,0,.062-.011.093-.017.015,0,.032-.006.049-.011s.058-.015.086-.024a.394.394,0,0,0,.047-.015l7.971-2.771,6.98,2.429v1.3Z" transform="translate(0 -79.998)"/>
</g></g></svg>